<svg width="24" height="25" viewBox="0 0 24 25" fill="none" xmlns="http://www.w3.org/2000/svg">
<path d="M19.1373 24.0131H4.87448C3.17678 24.0131 1.62429 23.153 0.730767 21.7011C-0.162755 20.2491 -0.240938 18.4844 0.518556 16.9542L2.43963 13.1009C3.06509 11.85 4.07031 11.0682 5.19838 10.9453C6.32645 10.8224 7.47686 11.3809 8.34804 12.4643L8.59376 12.777C9.0852 13.3801 9.65482 13.704 10.2132 13.6482C10.7717 13.6035 11.2855 13.2014 11.6652 12.5201L13.7761 8.71153C14.6473 7.13669 15.8089 6.32136 17.071 6.3772C18.3219 6.44421 19.3942 7.38241 20.109 9.03543L23.6049 17.2C24.2527 18.7078 24.0963 20.4278 23.1916 21.8016C22.2981 23.1977 20.7791 24.0131 19.1373 24.0131ZM5.51111 12.6207C5.46643 12.6207 5.42176 12.6207 5.37708 12.6318C4.81863 12.6877 4.30486 13.1344 3.93628 13.8604L2.01521 17.7137C1.5126 18.7078 1.56844 19.8805 2.14923 20.8299C2.73002 21.7793 3.75757 22.3489 4.87448 22.3489H19.1261C20.2207 22.3489 21.1924 21.8239 21.7955 20.9081C22.3986 19.9922 22.4992 18.8976 22.0636 17.8924L18.5677 9.72791C18.1432 8.7227 17.5513 8.1084 16.9817 8.08606C16.4567 8.05255 15.7754 8.61101 15.2393 9.56037L13.1283 13.369C12.4805 14.5306 11.4642 15.2565 10.3584 15.3571C9.25274 15.4464 8.12466 14.9103 7.28699 13.8604L7.04127 13.5477C6.57217 12.9334 6.03606 12.6207 5.51111 12.6207Z" fill="white"/>
<path d="M6.41568 8.37677C4.11486 8.37677 2.22729 6.50037 2.22729 4.18839C2.22729 1.8764 4.10369 0 6.41568 0C8.72767 0 10.6041 1.8764 10.6041 4.18839C10.6041 6.50037 8.72767 8.37677 6.41568 8.37677ZM6.41568 1.67535C5.03072 1.67535 3.90265 2.80343 3.90265 4.18839C3.90265 5.57334 5.03072 6.70142 6.41568 6.70142C7.80064 6.70142 8.92871 5.57334 8.92871 4.18839C8.92871 2.80343 7.80064 1.67535 6.41568 1.67535Z" fill="white"/>
</svg>
