<svg width="24" height="24" viewBox="0 0 24 24" fill="none" xmlns="http://www.w3.org/2000/svg">
<path d="M21.4285 14.9784C21.0418 15.3651 20.4285 15.3651 20.0553 14.9784C19.6686 14.5918 19.6686 13.9784 20.0553 13.6051C22.7219 10.9384 22.7219 6.60502 20.0553 3.95168C17.3886 1.29834 13.0551 1.28501 10.4018 3.95168C7.7485 6.61835 7.73517 10.9517 10.4018 13.6051C10.7884 13.9918 10.7884 14.6051 10.4018 14.9784C10.0151 15.3651 9.40177 15.3651 9.0285 14.9784C5.60183 11.5518 5.60183 5.97835 9.0285 2.56501C12.4551 -0.848333 18.0285 -0.861666 21.4418 2.56501C24.8551 5.99168 24.8551 11.5518 21.4285 14.9784Z" fill="white"/>
<path d="M2.57168 9.00387C2.95834 8.6172 3.57168 8.6172 3.94501 9.00387C4.33168 9.39058 4.33168 10.0039 3.94501 10.3772C1.27834 13.0439 1.27834 17.3773 3.94501 20.0306C6.61169 22.6839 10.9451 22.6973 13.5984 20.0306C16.2518 17.3639 16.2651 13.0306 13.5984 10.3772C13.2118 9.99058 13.2118 9.37724 13.5984 9.00387C13.9851 8.6172 14.5984 8.6172 14.9718 9.00387C18.3984 12.4306 18.3984 18.0039 14.9718 21.4173C11.5451 24.8306 5.97168 24.8439 2.55834 21.4173C-0.855 17.9906 -0.854999 12.4306 2.57168 9.00387Z" fill="white"/>
</svg>
