<svg width="24" height="24" viewBox="0 0 24 24" fill="none" xmlns="http://www.w3.org/2000/svg">
<path d="M12.1346 13.7077C12.1123 13.7077 12.0788 13.7077 12.0565 13.7077C12.023 13.7077 11.9783 13.7077 11.9448 13.7077C9.41086 13.6296 7.51318 11.6538 7.51318 9.22028C7.51318 6.74214 9.53365 4.72168 12.0118 4.72168C14.49 4.72168 16.5104 6.74214 16.5104 9.22028C16.4993 11.665 14.5904 13.6296 12.1681 13.7077C12.1458 13.7077 12.1458 13.7077 12.1346 13.7077ZM12.0007 6.38494C10.4379 6.38494 9.17644 7.65749 9.17644 9.20912C9.17644 10.7384 10.3709 11.9775 11.889 12.0333C11.9225 12.0222 12.0341 12.0222 12.1458 12.0333C13.6416 11.9552 14.8137 10.7273 14.8248 9.20912C14.8248 7.65749 13.5634 6.38494 12.0007 6.38494Z" fill="white"/>
<path d="M12.001 24.0004C8.99821 24.0004 6.12937 22.8841 3.90797 20.8525C3.70704 20.6739 3.61774 20.406 3.64007 20.1493C3.78518 18.8209 4.61123 17.5818 5.98425 16.6665C9.31077 14.4562 14.7024 14.4562 18.0177 16.6665C19.3908 17.593 20.2168 18.8209 20.3619 20.1493C20.3954 20.4172 20.2949 20.6739 20.094 20.8525C17.8726 22.8841 15.0038 24.0004 12.001 24.0004ZM5.39263 19.926C7.24565 21.4776 9.57867 22.326 12.001 22.326C14.4233 22.326 16.7563 21.4776 18.6094 19.926C18.4084 19.2451 17.8726 18.5865 17.0801 18.0506C14.334 16.22 9.67914 16.22 6.91077 18.0506C6.11821 18.5865 5.59356 19.2451 5.39263 19.926Z" fill="white"/>
<path d="M12 24C5.38047 24 0 18.6195 0 12C0 5.38047 5.38047 0 12 0C18.6195 0 24 5.38047 24 12C24 18.6195 18.6195 24 12 24ZM12 1.67442C6.30698 1.67442 1.67442 6.30698 1.67442 12C1.67442 17.693 6.30698 22.3256 12 22.3256C17.693 22.3256 22.3256 17.693 22.3256 12C22.3256 6.30698 17.693 1.67442 12 1.67442Z" fill="white"/>
</svg>
