<svg width="24" height="25" viewBox="0 0 24 25" fill="none" xmlns="http://www.w3.org/2000/svg">
<path d="M11.443 22.886C5.13539 22.886 0 17.7506 0 11.443C0 5.13539 5.13539 0 11.443 0C17.7506 0 22.886 5.13539 22.886 11.443C22.886 17.7506 17.7506 22.886 11.443 22.886ZM11.443 1.67458C6.05082 1.67458 1.67458 6.06199 1.67458 11.443C1.67458 16.824 6.05082 21.2114 11.443 21.2114C16.8351 21.2114 21.2114 16.824 21.2114 11.443C21.2114 6.06199 16.8351 1.67458 11.443 1.67458Z" fill="white"/>
<path d="M23.1654 24.0022C22.9533 24.0022 22.7412 23.9241 22.5737 23.7566L20.341 21.5238C20.0172 21.2001 20.0172 20.6642 20.341 20.3405C20.6647 20.0167 21.2006 20.0167 21.5243 20.3405L23.7571 22.5732C24.0809 22.897 24.0809 23.4329 23.7571 23.7566C23.5896 23.9241 23.3775 24.0022 23.1654 24.0022Z" fill="white"/>
</svg>
